<?xml version="1.0" encoding="utf-8"?>
<!-- Generator: Adobe Illustrator 28.3.0, SVG Export Plug-In . SVG Version: 6.00 Build 0)  -->
<svg version="1.1" id="Layer_1" xmlns="http://www.w3.org/2000/svg" xmlns:xlink="http://www.w3.org/1999/xlink" x="0px" y="0px"
	 viewBox="0 0 394 395" style="enable-background:new 0 0 394 395;" xml:space="preserve">
<style type="text/css">
	.st0{clip-path:url(#SVGID_00000124128079588831682210000003630684133116162992_);}
	.st1{fill:#566AE4;}
	.st2{fill:#45DABE;}
	.st3{fill:#052439;}
</style>
<g>
	<defs>
		<rect id="SVGID_1_" width="394" height="395"/>
	</defs>
	<clipPath id="SVGID_00000156567067096979542880000007284718811503584919_">
		<use xlink:href="#SVGID_1_"  style="overflow:visible;"/>
	</clipPath>
	<g style="clip-path:url(#SVGID_00000156567067096979542880000007284718811503584919_);">
		<path class="st1" d="M197.3,197.2c0,0.2,0,0.3,0,0.5C306,197.5,394,109,394,0H14.5C116.7,7.4,197.3,92.9,197.3,197.2z"/>
		<path class="st2" d="M196.7,197.8C92.7,197.8,7.4,116.9,0,14.5V395c108.8,0,197-88.3,197.2-197.3
			C197.1,197.7,196.9,197.7,196.7,197.8L196.7,197.8z"/>
		<path class="st3" d="M14.5,0H0v197.7h196.5c0,0,0.2,0,0.3,0c0.2,0,0.3,0,0.5,0c0-0.2,0-0.3,0-0.5C197.3,92.9,116.7,7.4,14.5,0z"/>
	</g>
</g>
</svg>
